<mxfile host="app.diagrams.net" modified="2020-07-19T01:35:58.840Z" agent="5.0 (Windows)" etag="T4mYIwZh2KLxNjgmxOPo" version="13.4.6" type="github">
  <diagram id="jOWsjgIa9RFloRAzkDG5" name="Seite-1">
    <mxGraphModel dx="1572" dy="1014" grid="1" gridSize="10" guides="1" tooltips="1" connect="1" arrows="1" fold="1" page="1" pageScale="1" pageWidth="827" pageHeight="1169" math="0" shadow="0">
      <root>
        <mxCell id="0" />
        <mxCell id="1" parent="0" />
        <mxCell id="SQietzI9pZXa-uVwz0D6-2" value="" style="verticalLabelPosition=bottom;html=1;verticalAlign=top;align=center;shape=mxgraph.floorplan.wallCorner;fillColor=#000000;direction=south;" parent="1" vertex="1">
          <mxGeometry x="273" y="200" width="440" height="380" as="geometry" />
        </mxCell>
        <mxCell id="SQietzI9pZXa-uVwz0D6-3" value="" style="verticalLabelPosition=bottom;html=1;verticalAlign=top;align=center;shape=mxgraph.floorplan.window;fillColor=#ffffff;" parent="1" vertex="1">
          <mxGeometry x="573" y="200" width="100" height="10" as="geometry" />
        </mxCell>
        <mxCell id="SQietzI9pZXa-uVwz0D6-5" value="" style="verticalLabelPosition=bottom;html=1;verticalAlign=top;align=center;shape=mxgraph.floorplan.window;fillColor=#ffffff;" parent="1" vertex="1">
          <mxGeometry x="453" y="200" width="100" height="10" as="geometry" />
        </mxCell>
        <mxCell id="SQietzI9pZXa-uVwz0D6-6" value="" style="verticalLabelPosition=bottom;html=1;verticalAlign=top;align=center;shape=mxgraph.floorplan.wall;fillColor=#000000;direction=south;" parent="1" vertex="1">
          <mxGeometry x="403" y="210" width="10" height="280" as="geometry" />
        </mxCell>
        <mxCell id="SQietzI9pZXa-uVwz0D6-7" value="" style="verticalLabelPosition=bottom;html=1;verticalAlign=top;align=center;shape=mxgraph.floorplan.wallCorner;fillColor=#000000;" parent="1" vertex="1">
          <mxGeometry x="113" y="200" width="210" height="710" as="geometry" />
        </mxCell>
        <mxCell id="SQietzI9pZXa-uVwz0D6-10" value="" style="verticalLabelPosition=bottom;html=1;verticalAlign=top;align=center;shape=mxgraph.floorplan.window;fillColor=#ffffff;rotation=90;" parent="1" vertex="1">
          <mxGeometry x="68" y="285" width="100" height="10" as="geometry" />
        </mxCell>
        <mxCell id="SQietzI9pZXa-uVwz0D6-11" value="" style="verticalLabelPosition=bottom;html=1;verticalAlign=top;align=center;shape=mxgraph.floorplan.window;fillColor=#ffffff;rotation=90;" parent="1" vertex="1">
          <mxGeometry x="68" y="410" width="100" height="10" as="geometry" />
        </mxCell>
        <mxCell id="SQietzI9pZXa-uVwz0D6-12" value="" style="verticalLabelPosition=bottom;html=1;verticalAlign=top;align=center;shape=mxgraph.floorplan.window;fillColor=#ffffff;rotation=90;" parent="1" vertex="1">
          <mxGeometry x="68" y="570" width="100" height="10" as="geometry" />
        </mxCell>
        <mxCell id="SQietzI9pZXa-uVwz0D6-13" value="" style="verticalLabelPosition=bottom;html=1;verticalAlign=top;align=center;shape=mxgraph.floorplan.window;fillColor=#ffffff;rotation=90;" parent="1" vertex="1">
          <mxGeometry x="68" y="690" width="100" height="10" as="geometry" />
        </mxCell>
        <mxCell id="SQietzI9pZXa-uVwz0D6-14" value="" style="verticalLabelPosition=bottom;html=1;verticalAlign=top;align=center;shape=mxgraph.floorplan.wall;fillColor=#000000;" parent="1" vertex="1">
          <mxGeometry x="118" y="490" width="592" height="10" as="geometry" />
        </mxCell>
        <mxCell id="SQietzI9pZXa-uVwz0D6-15" value="" style="verticalLabelPosition=bottom;html=1;verticalAlign=top;align=center;shape=mxgraph.floorplan.doorLeft;aspect=fixed;rotation=-90;" parent="1" vertex="1">
          <mxGeometry x="408" y="415" width="66" height="70" as="geometry" />
        </mxCell>
        <mxCell id="SQietzI9pZXa-uVwz0D6-16" value="" style="verticalLabelPosition=bottom;html=1;verticalAlign=top;align=center;shape=mxgraph.floorplan.doorRight;aspect=fixed;" parent="1" vertex="1">
          <mxGeometry x="539" y="495" width="80" height="85" as="geometry" />
        </mxCell>
        <mxCell id="SQietzI9pZXa-uVwz0D6-17" value="" style="verticalLabelPosition=bottom;html=1;verticalAlign=top;align=center;shape=mxgraph.floorplan.bed_double;rotation=180;" parent="1" vertex="1">
          <mxGeometry x="180" y="320" width="160" height="155" as="geometry" />
        </mxCell>
        <mxCell id="SQietzI9pZXa-uVwz0D6-18" value="" style="verticalLabelPosition=bottom;html=1;verticalAlign=top;align=center;shape=mxgraph.floorplan.wall;fillColor=#000000;direction=south;" parent="1" vertex="1">
          <mxGeometry x="403" y="500" width="10" height="280" as="geometry" />
        </mxCell>
        <mxCell id="SQietzI9pZXa-uVwz0D6-19" value="" style="verticalLabelPosition=bottom;html=1;verticalAlign=top;align=center;shape=mxgraph.floorplan.wall;fillColor=#000000;" parent="1" vertex="1">
          <mxGeometry x="118" y="765" width="292" height="10" as="geometry" />
        </mxCell>
        <mxCell id="SQietzI9pZXa-uVwz0D6-20" value="" style="verticalLabelPosition=bottom;html=1;verticalAlign=top;align=center;shape=mxgraph.floorplan.wall;fillColor=#000000;direction=south;" parent="1" vertex="1">
          <mxGeometry x="310" y="490" width="10" height="280" as="geometry" />
        </mxCell>
        <mxCell id="SQietzI9pZXa-uVwz0D6-21" value="" style="verticalLabelPosition=bottom;html=1;verticalAlign=top;align=center;shape=mxgraph.floorplan.shower;" parent="1" vertex="1">
          <mxGeometry x="230" y="505" width="80" height="75" as="geometry" />
        </mxCell>
        <mxCell id="SQietzI9pZXa-uVwz0D6-22" value="" style="verticalLabelPosition=bottom;html=1;verticalAlign=top;align=center;shape=mxgraph.floorplan.wall;fillColor=#000000;" parent="1" vertex="1">
          <mxGeometry x="170" y="590" width="145" height="10" as="geometry" />
        </mxCell>
        <mxCell id="SQietzI9pZXa-uVwz0D6-23" value="" style="verticalLabelPosition=bottom;html=1;verticalAlign=top;align=center;shape=mxgraph.floorplan.doorLeft;aspect=fixed;rotation=90;" parent="1" vertex="1">
          <mxGeometry x="248" y="694" width="66" height="70" as="geometry" />
        </mxCell>
        <mxCell id="SQietzI9pZXa-uVwz0D6-24" value="" style="verticalLabelPosition=bottom;html=1;verticalAlign=top;align=center;shape=mxgraph.floorplan.wallCorner;fillColor=#000000;direction=west" parent="1" vertex="1">
          <mxGeometry x="410" y="570" width="303" height="205" as="geometry" />
        </mxCell>
        <mxCell id="SQietzI9pZXa-uVwz0D6-25" value="" style="verticalLabelPosition=bottom;html=1;verticalAlign=top;align=center;shape=mxgraph.floorplan.sink_double;" parent="1" vertex="1">
          <mxGeometry x="190" y="605" width="80" height="35" as="geometry" />
        </mxCell>
        <mxCell id="SQietzI9pZXa-uVwz0D6-26" value="" style="verticalLabelPosition=bottom;html=1;verticalAlign=top;align=center;shape=mxgraph.floorplan.chair;shadow=0;" parent="1" vertex="1">
          <mxGeometry x="520" y="608" width="40" height="52" as="geometry" />
        </mxCell>
        <mxCell id="SQietzI9pZXa-uVwz0D6-27" value="" style="verticalLabelPosition=bottom;html=1;verticalAlign=top;align=center;shape=mxgraph.floorplan.chair;shadow=0;direction=west;" parent="1" vertex="1">
          <mxGeometry x="520" y="696" width="40" height="52" as="geometry" />
        </mxCell>
        <mxCell id="SQietzI9pZXa-uVwz0D6-28" value="" style="verticalLabelPosition=bottom;html=1;verticalAlign=top;align=center;shape=mxgraph.floorplan.chair;shadow=0;direction=north;" parent="1" vertex="1">
          <mxGeometry x="470" y="658" width="52" height="40" as="geometry" />
        </mxCell>
        <mxCell id="SQietzI9pZXa-uVwz0D6-29" value="" style="verticalLabelPosition=bottom;html=1;verticalAlign=top;align=center;shape=mxgraph.floorplan.chair;shadow=0;direction=south" parent="1" vertex="1">
          <mxGeometry x="558" y="658" width="52" height="40" as="geometry" />
        </mxCell>
        <mxCell id="SQietzI9pZXa-uVwz0D6-30" value="" style="shape=rect;shadow=0;" parent="1" vertex="1">
          <mxGeometry x="490" y="628" width="100" height="100" as="geometry" />
        </mxCell>
        <mxCell id="SQietzI9pZXa-uVwz0D6-31" value="" style="verticalLabelPosition=bottom;html=1;verticalAlign=top;align=center;shape=mxgraph.floorplan.window;fillColor=#ffffff;rotation=90;" parent="1" vertex="1">
          <mxGeometry x="658" y="585" width="100" height="10" as="geometry" />
        </mxCell>
        <mxCell id="SQietzI9pZXa-uVwz0D6-32" value="" style="verticalLabelPosition=bottom;html=1;verticalAlign=top;align=center;shape=mxgraph.floorplan.couch;rotation=90;" parent="1" vertex="1">
          <mxGeometry x="573" y="290" width="150" height="80" as="geometry" />
        </mxCell>
        <mxCell id="SQietzI9pZXa-uVwz0D6-33" value="" style="verticalLabelPosition=bottom;html=1;verticalAlign=top;align=center;shape=mxgraph.floorplan.toilet;rotation=180;" parent="1" vertex="1">
          <mxGeometry x="130" y="690" width="50" height="67" as="geometry" />
        </mxCell>
        <mxCell id="SQietzI9pZXa-uVwz0D6-34" value="" style="verticalLabelPosition=bottom;html=1;verticalAlign=top;align=center;shape=mxgraph.floorplan.wall;fillColor=#000000;" parent="1" vertex="1">
          <mxGeometry x="120" y="905" width="290" height="10" as="geometry" />
        </mxCell>
        <mxCell id="SQietzI9pZXa-uVwz0D6-35" value="" style="verticalLabelPosition=bottom;html=1;verticalAlign=top;align=center;shape=mxgraph.floorplan.wall;fillColor=#000000;direction=south;" parent="1" vertex="1">
          <mxGeometry x="403" y="780" width="10" height="130" as="geometry" />
        </mxCell>
        <mxCell id="SQietzI9pZXa-uVwz0D6-36" value="" style="verticalLabelPosition=bottom;html=1;verticalAlign=top;align=center;shape=mxgraph.floorplan.doorRight;aspect=fixed;" parent="1" vertex="1">
          <mxGeometry x="323" y="765" width="60" height="64" as="geometry" />
        </mxCell>
        <mxCell id="SQietzI9pZXa-uVwz0D6-37" value="" style="verticalLabelPosition=bottom;html=1;verticalAlign=top;align=center;shape=mxgraph.floorplan.doorLeft;aspect=fixed;rotation=-90;" parent="1" vertex="1">
          <mxGeometry x="408" y="805" width="66" height="70" as="geometry" />
        </mxCell>
        <mxCell id="SQietzI9pZXa-uVwz0D6-39" value="" style="verticalLabelPosition=bottom;html=1;verticalAlign=top;align=center;shape=mxgraph.floorplan.window;fillColor=#ffffff;" parent="1" vertex="1">
          <mxGeometry x="190" y="905" width="156" height="10" as="geometry" />
        </mxCell>
        <mxCell id="SQietzI9pZXa-uVwz0D6-40" value="" style="verticalLabelPosition=bottom;html=1;verticalAlign=top;align=center;shape=mxgraph.floorplan.window;fillColor=#ffffff;rotation=90;" parent="1" vertex="1">
          <mxGeometry x="92" y="830" width="52" height="10" as="geometry" />
        </mxCell>
        <mxCell id="SQietzI9pZXa-uVwz0D6-42" value="" style="pointerEvents=1;verticalLabelPosition=bottom;shadow=0;dashed=0;align=center;fillColor=#ffffff;html=1;verticalAlign=top;strokeWidth=1;shape=mxgraph.electrical.signal_sources.ac_source;" parent="1" vertex="1">
          <mxGeometry x="144" y="780" width="32" height="35" as="geometry" />
        </mxCell>
        <mxCell id="SQietzI9pZXa-uVwz0D6-46" value="" style="pointerEvents=1;shadow=0;dashed=0;html=1;strokeColor=none;fillColor=#505050;labelPosition=center;verticalLabelPosition=bottom;verticalAlign=top;outlineConnect=0;align=center;shape=mxgraph.office.devices.mac_client;direction=north;" parent="1" vertex="1">
          <mxGeometry x="436" y="271" width="48" height="99" as="geometry" />
        </mxCell>
        <mxCell id="SQietzI9pZXa-uVwz0D6-73" value="" style="group" parent="1" vertex="1" connectable="0">
          <mxGeometry x="453" y="160" width="51" height="36" as="geometry" />
        </mxCell>
        <mxCell id="SQietzI9pZXa-uVwz0D6-76" value="Rolladen" style="text;html=1;resizable=0;points=[];autosize=1;align=left;verticalAlign=top;spacingTop=-4;" parent="SQietzI9pZXa-uVwz0D6-73" vertex="1">
          <mxGeometry y="23.586206896551726" width="60" height="20" as="geometry" />
        </mxCell>
        <mxCell id="SQietzI9pZXa-uVwz0D6-77" value="" style="group" parent="1" vertex="1" connectable="0">
          <mxGeometry x="573" y="157.5" width="51" height="36" as="geometry" />
        </mxCell>
        <mxCell id="SQietzI9pZXa-uVwz0D6-80" value="Rolladen" style="text;html=1;resizable=0;points=[];autosize=1;align=left;verticalAlign=top;spacingTop=-4;" parent="SQietzI9pZXa-uVwz0D6-77" vertex="1">
          <mxGeometry y="23.586206896551726" width="60" height="20" as="geometry" />
        </mxCell>
      </root>
    </mxGraphModel>
  </diagram>
</mxfile>
